<svg width="20" height="21" viewBox="0 0 20 21" fill="none" xmlns="http://www.w3.org/2000/svg">
  <path
    d="M7.75 17.8658C7.55109 17.8658 7.36032 17.7868 7.21967 17.6462C7.07902 17.5055 7 17.3148 7 17.1158C7 16.9169 7.07902 16.7262 7.21967 16.5855C7.36032 16.4449 7.55109 16.3658 7.75 16.3658H14C14.5304 16.3658 15.0391 16.1551 15.4142 15.7801C15.7893 15.405 16 14.8963 16 14.3658V6.36584C16 5.83541 15.7893 5.3267 15.4142 4.95163C15.0391 4.57656 14.5304 4.36584 14 4.36584H7.75C7.55109 4.36584 7.36032 4.28683 7.21967 4.14617C7.07902 4.00552 7 3.81476 7 3.61584C7 3.41693 7.07902 3.22617 7.21967 3.08551C7.36032 2.94486 7.55109 2.86584 7.75 2.86584H14C14.9283 2.86584 15.8185 3.23459 16.4749 3.89097C17.1313 4.54735 17.5 5.43759 17.5 6.36584V14.3658C17.5 15.2941 17.1313 16.1843 16.4749 16.8407C15.8185 17.4971 14.9283 17.8658 14 17.8658H7.75ZM7.741 6.56484C7.81335 6.49799 7.89816 6.44604 7.9906 6.41196C8.08303 6.37789 8.18127 6.36236 8.2797 6.36626C8.37813 6.37016 8.47484 6.39342 8.56428 6.4347C8.65373 6.47598 8.73417 6.53447 8.801 6.60684L11.801 9.85684C11.929 9.99542 12.0002 10.1772 12.0002 10.3658C12.0002 10.5545 11.929 10.7363 11.801 10.8748L8.801 14.1248C8.73409 14.1971 8.6536 14.2555 8.56412 14.2967C8.47464 14.3379 8.37792 14.3611 8.27949 14.3649C8.18106 14.3687 8.08284 14.3531 7.99045 14.3189C7.89806 14.2848 7.81329 14.2328 7.741 14.1658C7.66871 14.0989 7.6103 14.0184 7.56912 13.929C7.52793 13.8395 7.50477 13.7428 7.50097 13.6443C7.49328 13.4455 7.56487 13.2518 7.7 13.1058L9.538 11.1148H1.75C1.55109 11.1148 1.36032 11.0358 1.21967 10.8952C1.07902 10.7545 1 10.5638 1 10.3648C1 10.1659 1.07902 9.97517 1.21967 9.83451C1.36032 9.69386 1.55109 9.61484 1.75 9.61484H9.537L7.699 7.62484C7.63214 7.55249 7.58019 7.46768 7.54612 7.37525C7.51205 7.28282 7.49652 7.18458 7.50042 7.08614C7.50432 6.98771 7.52757 6.89101 7.56885 6.80156C7.61013 6.71212 7.66863 6.63168 7.741 6.56484Z"
    fill="white" />
</svg>