<svg width="24" height="25" viewBox="0 0 24 25" fill="none" xmlns="http://www.w3.org/2000/svg">
<path d="M12 3.34143C16.95 3.34143 21 7.39143 21 12.3414C21 17.2914 16.95 21.3414 12 21.3414C7.05 21.3414 3 17.2914 3 12.3414C3 7.39143 7.05 3.34143 12 3.34143ZM12 1.84143C6.225 1.84143 1.5 6.56643 1.5 12.3414C1.5 18.1164 6.225 22.8414 12 22.8414C17.775 22.8414 22.5 18.1164 22.5 12.3414C22.5 6.56643 17.775 1.84143 12 1.84143Z" fill="#1F2937"/>
<path d="M18 11.5914H12.75V6.34143H11.25V11.5914H6V13.0914H11.25V18.3414H12.75V13.0914H18V11.5914Z" fill="#1F2937"/>
</svg>
