<svg width="24" height="25" viewBox="0 0 24 25" fill="none" xmlns="http://www.w3.org/2000/svg">
<path d="M21.257 11.4254C21.731 12.0454 21.731 12.8824 21.257 13.5014C19.764 15.4504 16.182 19.4634 12 19.4634C7.81801 19.4634 4.23601 15.4504 2.74301 13.5014C2.51239 13.2045 2.38721 12.8393 2.38721 12.4634C2.38721 12.0875 2.51239 11.7222 2.74301 11.4254C4.23601 9.47638 7.81801 5.46338 12 5.46338C16.182 5.46338 19.764 9.47638 21.257 11.4254V11.4254Z" stroke="#9CA3AF" stroke-width="2" stroke-linecap="round" stroke-linejoin="round"/>
<path d="M12 15.4634C13.6569 15.4634 15 14.1202 15 12.4634C15 10.8065 13.6569 9.46338 12 9.46338C10.3431 9.46338 9 10.8065 9 12.4634C9 14.1202 10.3431 15.4634 12 15.4634Z" stroke="#9CA3AF" stroke-width="2" stroke-linecap="round" stroke-linejoin="round"/>
</svg>
