<svg width="24" height="25" viewBox="0 0 24 25" fill="none" xmlns="http://www.w3.org/2000/svg">
<path d="M6.87289 17.5924C5.02789 16.2824 3.56789 14.5784 2.74289 13.5024C2.51219 13.2054 2.38696 12.84 2.38696 12.4639C2.38696 12.0878 2.51219 11.7224 2.74289 11.4254C4.23589 9.47638 7.81789 5.46338 11.9999 5.46338C13.8759 5.46338 15.6299 6.27038 17.1299 7.33738" stroke="#9CA3AF" stroke-width="2" stroke-linecap="round" stroke-linejoin="round"/>
<path d="M14.13 10.3504C13.8523 10.068 13.5214 9.84349 13.1565 9.68966C12.7916 9.53584 12.3998 9.45579 12.0038 9.45413C11.6078 9.45247 11.2154 9.52924 10.8491 9.68C10.4829 9.83076 10.1502 10.0525 9.87016 10.3325C9.5901 10.6125 9.36824 10.9452 9.21739 11.3114C9.06654 11.6775 8.98969 12.0699 8.99125 12.466C8.99282 12.862 9.07278 13.2538 9.22652 13.6187C9.38026 13.9837 9.60473 14.3146 9.887 14.5924M4 20.4634L20 4.46338M10 19.1674C10.6492 19.3606 11.3227 19.4603 12 19.4634C16.182 19.4634 19.764 15.4504 21.257 13.5014C21.4876 13.2041 21.6127 12.8385 21.6125 12.4622C21.6124 12.0859 21.4869 11.7204 21.256 11.4234C20.7313 10.7389 20.1684 10.0845 19.57 9.46338" stroke="#9CA3AF" stroke-width="2" stroke-linecap="round" stroke-linejoin="round"/>
</svg>
