<svg width="22" height="23" viewBox="0 0 22 23" fill="none" xmlns="http://www.w3.org/2000/svg">
<path d="M21.0156 9.48754L11.7068 0.923434C11.4042 0.645021 11.0056 0.494348 10.5945 0.502909C10.1834 0.51147 9.79152 0.678602 9.50075 0.969372L0.939359 9.53081L0.5 9.97012V22.5914H8.75V14.7164H13.25V22.5914H21.5V9.93323L21.0156 9.48754ZM10.6268 2.00259C10.64 2.00259 10.6318 2.00545 10.6262 2.01103C10.6203 2.00545 10.6136 2.00259 10.6268 2.00259ZM20 21.0914H14.75V14.7164C14.75 14.3186 14.592 13.9371 14.3107 13.6558C14.0294 13.3745 13.6478 13.2164 13.25 13.2164H8.75C8.35218 13.2164 7.97064 13.3745 7.68934 13.6558C7.40804 13.9371 7.25 14.3186 7.25 14.7164V21.0914H2V10.5914L10.6268 2.03001L10.6279 2.02837L20 10.5914V21.0914Z" fill="#1F2937"/>
</svg>
