<svg width="24" height="25" viewBox="0 0 24 25" fill="none" xmlns="http://www.w3.org/2000/svg">
<path d="M21.375 4.84146H7.6875C7.58437 4.84146 7.5 4.92584 7.5 5.02896V6.34146C7.5 6.44459 7.58437 6.52896 7.6875 6.52896H21.375C21.4781 6.52896 21.5625 6.44459 21.5625 6.34146V5.02896C21.5625 4.92584 21.4781 4.84146 21.375 4.84146ZM21.375 11.4977H7.6875C7.58437 11.4977 7.5 11.5821 7.5 11.6852V12.9977C7.5 13.1008 7.58437 13.1852 7.6875 13.1852H21.375C21.4781 13.1852 21.5625 13.1008 21.5625 12.9977V11.6852C21.5625 11.5821 21.4781 11.4977 21.375 11.4977ZM21.375 18.154H7.6875C7.58437 18.154 7.5 18.2383 7.5 18.3415V19.654C7.5 19.7571 7.58437 19.8415 7.6875 19.8415H21.375C21.4781 19.8415 21.5625 19.7571 21.5625 19.654V18.3415C21.5625 18.2383 21.4781 18.154 21.375 18.154ZM2.4375 5.68521C2.4375 5.85757 2.47145 6.02824 2.53741 6.18748C2.60337 6.34672 2.70005 6.49141 2.82192 6.61329C2.9438 6.73517 3.08849 6.83184 3.24773 6.8978C3.40697 6.96376 3.57764 6.99771 3.75 6.99771C3.92236 6.99771 4.09303 6.96376 4.25227 6.8978C4.41151 6.83184 4.5562 6.73517 4.67808 6.61329C4.79995 6.49141 4.89663 6.34672 4.96259 6.18748C5.02855 6.02824 5.0625 5.85757 5.0625 5.68521C5.0625 5.51285 5.02855 5.34218 4.96259 5.18294C4.89663 5.0237 4.79995 4.87901 4.67808 4.75713C4.5562 4.63526 4.41151 4.53858 4.25227 4.47262C4.09303 4.40666 3.92236 4.37271 3.75 4.37271C3.57764 4.37271 3.40697 4.40666 3.24773 4.47262C3.08849 4.53858 2.9438 4.63526 2.82192 4.75713C2.70005 4.87901 2.60337 5.0237 2.53741 5.18294C2.47145 5.34218 2.4375 5.51285 2.4375 5.68521ZM2.4375 12.3415C2.4375 12.5138 2.47145 12.6845 2.53741 12.8437C2.60337 13.003 2.70005 13.1477 2.82192 13.2695C2.9438 13.3914 3.08849 13.4881 3.24773 13.5541C3.40697 13.62 3.57764 13.654 3.75 13.654C3.92236 13.654 4.09303 13.62 4.25227 13.5541C4.41151 13.4881 4.5562 13.3914 4.67808 13.2695C4.79995 13.1477 4.89663 13.003 4.96259 12.8437C5.02855 12.6845 5.0625 12.5138 5.0625 12.3415C5.0625 12.1691 5.02855 11.9984 4.96259 11.8392C4.89663 11.6799 4.79995 11.5353 4.67808 11.4134C4.5562 11.2915 4.41151 11.1948 4.25227 11.1289C4.09303 11.0629 3.92236 11.029 3.75 11.029C3.57764 11.029 3.40697 11.0629 3.24773 11.1289C3.08849 11.1948 2.9438 11.2915 2.82192 11.4134C2.70005 11.5353 2.60337 11.6799 2.53741 11.8392C2.47145 11.9984 2.4375 12.1691 2.4375 12.3415ZM2.4375 18.9977C2.4375 19.1701 2.47145 19.3407 2.53741 19.5C2.60337 19.6592 2.70005 19.8039 2.82192 19.9258C2.9438 20.0477 3.08849 20.1443 3.24773 20.2103C3.40697 20.2763 3.57764 20.3102 3.75 20.3102C3.92236 20.3102 4.09303 20.2763 4.25227 20.2103C4.41151 20.1443 4.5562 20.0477 4.67808 19.9258C4.79995 19.8039 4.89663 19.6592 4.96259 19.5C5.02855 19.3407 5.0625 19.1701 5.0625 18.9977C5.0625 18.8254 5.02855 18.6547 4.96259 18.4954C4.89663 18.3362 4.79995 18.1915 4.67808 18.0696C4.5562 17.9478 4.41151 17.8511 4.25227 17.7851C4.09303 17.7192 3.92236 17.6852 3.75 17.6852C3.57764 17.6852 3.40697 17.7192 3.24773 17.7851C3.08849 17.8511 2.9438 17.9478 2.82192 18.0696C2.70005 18.1915 2.60337 18.3362 2.53741 18.4954C2.47145 18.6547 2.4375 18.8254 2.4375 18.9977Z" fill="#1F2937"/>
</svg>
