<svg width="39" height="37" viewBox="0 0 39 37" fill="none" xmlns="http://www.w3.org/2000/svg">
<path d="M28.5625 10H10.1875C10.0844 10 10 10.0844 10 10.1875V11.6875C10 11.7906 10.0844 11.875 10.1875 11.875H28.5625C28.6656 11.875 28.75 11.7906 28.75 11.6875V10.1875C28.75 10.0844 28.6656 10 28.5625 10ZM28.5625 24.625H10.1875C10.0844 24.625 10 24.7094 10 24.8125V26.3125C10 26.4156 10.0844 26.5 10.1875 26.5H28.5625C28.6656 26.5 28.75 26.4156 28.75 26.3125V24.8125C28.75 24.7094 28.6656 24.625 28.5625 24.625ZM28.5625 17.3125H10.1875C10.0844 17.3125 10 17.3969 10 17.5V19C10 19.1031 10.0844 19.1875 10.1875 19.1875H28.5625C28.6656 19.1875 28.75 19.1031 28.75 19V17.5C28.75 17.3969 28.6656 17.3125 28.5625 17.3125Z" fill="#374151"/>
<rect x="0.5" y="0.5" width="37.75" height="35.5" rx="4.5" stroke="#4B5563"/>
</svg>
