<svg width="24" height="25" viewBox="0 0 18 23" fill="none" xmlns="http://www.w3.org/2000/svg">
  <path
    d="M1 3.34146V19.3415C1 19.8719 1.21071 20.3806 1.58579 20.7557C1.96086 21.1307 2.46957 21.3415 3 21.3415H15C15.5304 21.3415 16.0391 21.1307 16.4142 20.7557C16.7893 20.3806 17 19.8719 17 19.3415V7.68346C17 7.41702 16.9467 7.15327 16.8433 6.90771C16.7399 6.66214 16.5885 6.4397 16.398 6.25346L11.958 1.91146C11.5844 1.54612 11.0826 1.34153 10.56 1.34146H3C2.46957 1.34146 1.96086 1.55217 1.58579 1.92725C1.21071 2.30232 1 2.81103 1 3.34146V3.34146Z"
    stroke="#1F2937" stroke-width="2" stroke-linecap="round" stroke-linejoin="round" />
  <path d="M11 1.34146V5.34146C11 5.87189 11.2107 6.3806 11.5858 6.75567C11.9609 7.13075 12.4696 7.34146 13 7.34146H17"
    stroke="#1F2937" stroke-width="2" stroke-linejoin="round" />
</svg>