<svg width="24" height="25" viewBox="0 0 24 25" fill="none" xmlns="http://www.w3.org/2000/svg">
<path d="M12 3.34146C16.95 3.34146 21 7.39146 21 12.3415C21 17.2915 16.95 21.3415 12 21.3415C7.05 21.3415 3 17.2915 3 12.3415C3 7.39146 7.05 3.34146 12 3.34146ZM12 1.84146C6.225 1.84146 1.5 6.56646 1.5 12.3415C1.5 18.1165 6.225 22.8415 12 22.8415C17.775 22.8415 22.5 18.1165 22.5 12.3415C22.5 6.56646 17.775 1.84146 12 1.84146Z" fill="#1F2937"/>
<path d="M18 11.5915H12.75V6.34146H11.25V11.5915H6V13.0915H11.25V18.3415H12.75V13.0915H18V11.5915Z" fill="#1F2937"/>
</svg>
