<svg width="24" height="25" viewBox="0 0 24 25" fill="none" xmlns="http://www.w3.org/2000/svg">
<path d="M12 2.34143C6.477 2.34143 2 6.81843 2 12.3414C2 17.8644 6.477 22.3414 12 22.3414C17.523 22.3414 22 17.8644 22 12.3414C22 6.81843 17.523 2.34143 12 2.34143Z" stroke="#1F2937" stroke-width="2" stroke-linecap="round" stroke-linejoin="round"/>
<path d="M4.271 18.6874C4.271 18.6874 6.5 15.8414 12 15.8414C17.5 15.8414 19.73 18.6874 19.73 18.6874M12 12.3414C12.7956 12.3414 13.5587 12.0254 14.1213 11.4628C14.6839 10.9001 15 10.1371 15 9.34143C15 8.54578 14.6839 7.78272 14.1213 7.22011C13.5587 6.6575 12.7956 6.34143 12 6.34143C11.2043 6.34143 10.4413 6.6575 9.87868 7.22011C9.31607 7.78272 9 8.54578 9 9.34143C9 10.1371 9.31607 10.9001 9.87868 11.4628C10.4413 12.0254 11.2043 12.3414 12 12.3414V12.3414Z" stroke="#1F2937" stroke-width="2" stroke-linecap="round" stroke-linejoin="round"/>
</svg>
