<svg width="24" height="24" viewBox="0 0 24 24" fill="none" xmlns="http://www.w3.org/2000/svg">
<g clip-path="url(#clip0_114_189)">
<path d="M5.48122 1.99215C5.39267 1.87824 5.28089 1.78448 5.15332 1.71709C5.02575 1.6497 4.8853 1.61022 4.7413 1.60128C4.59729 1.59234 4.45304 1.61415 4.31811 1.66525C4.18319 1.71634 4.06067 1.79556 3.95872 1.89765L2.40772 3.45015C1.68322 4.17615 1.41622 5.20365 1.73272 6.10515C3.04633 9.83653 5.18316 13.2243 7.98472 16.0171C10.7776 18.8187 14.1654 20.9555 17.8967 22.2691C18.7982 22.5856 19.8257 22.3186 20.5517 21.5941L22.1027 20.0431C22.2048 19.9412 22.284 19.8187 22.3351 19.6838C22.3862 19.5488 22.408 19.4046 22.3991 19.2606C22.3901 19.1166 22.3507 18.9761 22.2833 18.8485C22.2159 18.721 22.1221 18.6092 22.0082 18.5206L18.5477 15.8296C18.426 15.7353 18.2845 15.6697 18.1338 15.638C17.9831 15.6063 17.8271 15.6093 17.6777 15.6466L14.3927 16.4671C13.9542 16.5767 13.4949 16.5709 13.0593 16.4503C12.6237 16.3296 12.2268 16.0982 11.9072 15.7786L8.22322 12.0931C7.90337 11.7737 7.67171 11.3769 7.55079 10.9413C7.42987 10.5057 7.42381 10.0463 7.53322 9.60765L8.35522 6.32265C8.39258 6.17324 8.39552 6.0173 8.36382 5.86659C8.33212 5.71588 8.2666 5.57434 8.17222 5.45265L5.48122 1.99215ZM2.82622 0.766649C3.08871 0.504073 3.40406 0.300344 3.75133 0.168991C4.09859 0.0376369 4.46983 -0.0183361 4.84039 0.00478832C5.21095 0.0279127 5.57235 0.129605 5.90059 0.303114C6.22883 0.476622 6.51641 0.717976 6.74422 1.01115L9.43522 4.47015C9.92872 5.10465 10.1027 5.93115 9.90772 6.71115L9.08722 9.99615C9.0448 10.1663 9.04709 10.3445 9.09387 10.5135C9.14065 10.6825 9.23034 10.8365 9.35422 10.9606L13.0397 14.6461C13.164 14.7703 13.3183 14.8601 13.4875 14.9069C13.6568 14.9537 13.8354 14.9558 14.0057 14.9131L17.2892 14.0926C17.6741 13.9964 18.0759 13.9889 18.4641 14.0708C18.8524 14.1526 19.2169 14.3217 19.5302 14.5651L22.9892 17.2561C24.2327 18.2236 24.3467 20.0611 23.2337 21.1726L21.6827 22.7236C20.5727 23.8336 18.9137 24.3211 17.3672 23.7766C13.409 22.3839 9.81513 20.1179 6.85222 17.1466C3.88115 14.1842 1.61513 10.5908 0.222218 6.63315C-0.320782 5.08815 0.166718 3.42765 1.27672 2.31765L2.82772 0.766649H2.82622Z" fill="#1F2937"/>
</g>
<defs>
<clipPath id="clip0_114_189">
<rect width="24" height="24" fill="white"/>
</clipPath>
</defs>
</svg>
