<svg width="24" height="25" viewBox="0 0 24 25" fill="none" xmlns="http://www.w3.org/2000/svg">
<path d="M7.72 16.7975L9.481 16.2895L20.084 5.55946C20.1676 5.47376 20.2142 5.35859 20.2136 5.23885C20.2131 5.1191 20.1654 5.00438 20.081 4.91946L19.446 4.27746C19.405 4.2353 19.3559 4.20173 19.3018 4.17872C19.2477 4.15571 19.1895 4.14371 19.1306 4.14343C19.0718 4.14315 19.0135 4.15459 18.9591 4.17709C18.9048 4.19959 18.8554 4.23269 18.814 4.27446L8.239 14.9765L7.719 16.7965L7.72 16.7975ZM20.703 3.00546L21.338 3.64846C22.214 4.53546 22.222 5.96646 21.354 6.84446L10.428 17.9025L6.664 18.9865C6.4342 19.0508 6.18826 19.0213 5.98016 18.9045C5.77206 18.7877 5.6188 18.5931 5.554 18.3635C5.50578 18.1983 5.50509 18.023 5.552 17.8575L6.647 14.0175L17.544 2.98846C17.7512 2.77982 17.9979 2.61452 18.2696 2.50221C18.5414 2.3899 18.8328 2.33283 19.1269 2.33432C19.4209 2.33581 19.7117 2.39583 19.9823 2.51089C20.2529 2.62594 20.4979 2.79373 20.703 3.00446V3.00546ZM9.184 4.15846C9.68 4.15846 10.082 4.56546 10.082 5.06746C10.0828 5.18613 10.0602 5.30379 10.0155 5.41371C9.97076 5.52364 9.90481 5.62367 9.82141 5.70809C9.73801 5.79251 9.63879 5.85967 9.52942 5.90572C9.42004 5.95177 9.30267 5.97581 9.184 5.97646H5.592C4.6 5.97646 3.796 6.79046 3.796 7.79346V18.6995C3.796 19.7035 4.6 20.5175 5.592 20.5175H16.368C17.36 20.5175 18.165 19.7035 18.165 18.6995V15.0645C18.165 14.5625 18.567 14.1555 19.063 14.1555C19.559 14.1555 19.961 14.5625 19.961 15.0655V18.6995C19.961 20.7075 18.352 22.3355 16.368 22.3355H5.592C3.608 22.3355 2 20.7075 2 18.6995V7.79346C2 5.78646 3.608 4.15846 5.592 4.15846H9.184V4.15846Z" fill="#1F2937"/>
</svg>
